<svg id="Layer_1" xmlns="http://www.w3.org/2000/svg" viewBox="-117 127 24 15.2" fill-rule="evenodd"><path stroke="2" d="M-94.8,141h-18.3c-1,0-1.8-0.8-1.8-1.8v-3.4l0.7-0.2c0.7-0.3,1.2-0.9,1.2-1.6c0-0.7-0.5-1.4-1.2-1.6 l-0.7-0.2v-3.4c0-1,0.8-1.8,1.8-1.8h18.3c1,0,1.8,0.8,1.8,1.8v3.4l-0.7,0.2c-0.7,0.3-1.2,0.9-1.2,1.6c0,0.7,0.5,1.4,1.2,1.6 l0.7,0.2v3.4C-93,140.2-93.8,141-94.8,141z M-113,139h18v-1.8c-1.1-0.7-1.8-1.9-1.8-3.2c0-1.3,0.7-2.5,1.8-3.2V129h-18v1.8 c1.1,0.7,1.8,1.9,1.8,3.2c0,1.3-0.7,2.5-1.8,3.2V139z"/><polygon id="Path" class="st1" points="-101.2,138.1 -104,136.3 -106.8,138.1 -105.9,134.9 -108.5,132.8 -105.2,132.6 -104,129.5 -102.8,132.6 -99.5,132.8 -102.1,134.9"/></svg>